<?xml version="1.0" encoding="UTF-8"?>
<svg width="56px" height="56px" viewBox="0 0 56 56" version="1.1" xmlns="http://www.w3.org/2000/svg" xmlns:xlink="http://www.w3.org/1999/xlink">
    <!-- Generator: Sketch 51.3 (57544) - http://www.bohemiancoding.com/sketch -->
    <title>Artboard 5 Copy 3</title>
    <desc>Created with Sketch.</desc>
    <defs></defs>
    <g id="Artboard-5-Copy-3" stroke="none" stroke-width="1" fill="none" fill-rule="evenodd">
        <g id="Group-2-Copy" fill="#E53768" fill-rule="nonzero">
            <path d="M53.3058223,24.2170011 C55.3225181,22.6317175 55.6564174,19.7316258 54.0515541,17.7395341 C52.4466907,15.7474425 49.5107802,15.4176168 47.4940844,17.0029005 C45.4773886,18.5881841 45.1434893,21.4882758 46.7483526,23.4803675 C46.9679188,23.7529173 47.2181683,24.0001137 47.4940844,24.2170011 C46.9214856,24.5616931 46.4158533,25.0045723 46.0008708,25.5247794 L41.4262637,30.0435753 C40.5105489,28.8271847 38.7698859,28.5743415 37.5384718,29.4788843 C37.261739,29.682173 37.0257229,29.9345554 36.8425566,30.223124 L31.342318,26.3423138 L31.3375347,26.3489979 C31.1984683,26.2464315 31.054502,26.1504341 30.9059856,26.0608902 C32.9226814,24.4756066 33.2565807,21.5755148 31.6517174,19.5834232 C30.0468541,17.5913316 27.1109435,17.2615059 25.0942477,18.8467895 C23.0775519,20.4320731 22.7436526,23.3321649 24.348516,25.3242565 C24.5680822,25.5968064 24.8183316,25.8440027 25.0942477,26.0608902 C24.9456147,26.1505493 24.801765,26.2465468 24.6626986,26.3489979 L24.6579153,26.3423138 L19.1576768,30.223124 C18.3422951,28.9388553 16.6274154,28.5507166 15.3274014,29.3561504 C15.0352687,29.537082 14.7797692,29.7702188 14.5739697,30.0435753 L9.99936252,25.5247794 C9.58438005,25.0045723 9.07874777,24.5616931 8.50614897,24.2170011 C10.5228448,22.6317175 10.8567441,19.7316258 9.25188075,17.7395341 C7.64701742,15.7474425 4.71110687,15.4176168 2.69441108,17.0029005 C0.67736528,18.5880688 0.343582642,21.4881606 1.94844596,23.4803675 C2.16801217,23.7529173 2.41826165,24.0001137 2.69417774,24.2170011 C1.02363122,25.2177719 0.00245001933,27.00669 2.44353361e-08,28.9366657 L2.44353361e-08,37.2341664 C-0.000116641988,37.743195 0.417549154,38.1559957 0.932864747,38.1561109 C0.932981414,38.1561109 0.933214746,38.1561109 0.933331413,38.1561109 L10.2666453,38.1561109 C10.7819609,38.1562262 11.19986,37.743656 11.1999767,37.2346274 C11.1999767,37.2345121 11.1999767,37.2342816 11.1999767,37.2341664 L11.1999767,29.3183507 L14.0434874,32.1271699 C14.2762369,33.6325901 15.700384,34.6666661 17.2243975,34.4367562 C18.3987617,34.2596276 19.3309264,33.3677615 19.547576,32.213948 L22.4349533,30.1767963 C22.4122033,30.3773192 22.4005367,30.5788793 22.3999533,30.7805547 L22.3999533,39.0780554 C22.3998367,39.5870841 22.8175025,39.9998847 23.3328181,40 C23.3329347,40 23.3331681,40 23.3332847,40 L32.6665986,40 C33.1819142,40.0001152 33.5998133,39.587545 33.59993,39.0785164 C33.59993,39.0784012 33.59993,39.0781707 33.59993,39.0780554 L33.59993,30.7805547 C33.5993467,30.5787641 33.58768,30.377204 33.5649301,30.1767963 L36.4523074,32.213948 C36.7335901,33.7113011 38.1904038,34.6998561 39.7062506,34.4220051 C40.8741982,34.2078835 41.7770796,33.2870914 41.9565126,32.1271699 L44.8000233,29.3183507 L44.8000233,37.2341664 C44.7999067,37.743195 45.2175725,38.1559957 45.7328881,38.1561109 C45.7330047,38.1561109 45.7332381,38.1561109 45.7333547,38.1561109 L55.0666686,38.1561109 C55.5819842,38.1562262 55.9998833,37.743656 56,37.2346274 C56,37.2345121 56,37.2342816 56,37.2341664 L56,28.9366657 C55.9974333,27.00669 54.9762521,25.2177719 53.3058223,24.2170011 Z M6,18 C7.656875,18 9,19.343125 9,21 C9,22.656875 7.656875,24 6,24 C4.343125,24 3,22.656875 3,21 C3.00175,19.343875 4.343875,18.00175 6,18 Z M9,36 L2,36 L2,28.6666667 C2,26.6416354 3.56701562,25 5.5,25 C7.43298438,25 9,26.6416354 9,28.6666667 L9,36 Z M17,33 C16.44775,33 16,32.55225 16,32 C16,31.44775 16.44775,31 17,31 C17.55225,31 18,31.44775 18,32 C17.9995,32.552 17.552,32.999375 17,33 Z M28,20 C29.656875,20 31,21.343125 31,23 C31,24.656875 29.656875,26 28,26 C26.343125,26 25,24.656875 25,23 C25.00175,21.343875 26.343875,20.00175 28,20 Z M31,38 L24,38 L24,30.6666667 C24,28.6416354 25.5670156,27 27.5,27 C29.4329844,27 31,28.6416354 31,30.6666667 L31,38 Z M39,33 C38.44775,33 38,32.55225 38,32 C38,31.44775 38.44775,31 39,31 C39.55225,31 40,31.44775 40,32 C39.9995,32.552 39.552,32.999375 39,33 Z M51,18 C52.656875,18 54,19.343125 54,21 C54,22.656875 52.656875,24 51,24 C49.343125,24 48,22.656875 48,21 C48.00175,19.343875 49.343875,18.00175 51,18 Z M54,36 L47,36 L47,28.6666667 C47,26.6416354 48.5670156,25 50.5,25 C52.4329844,25 54,26.6416354 54,28.6666667 L54,36 Z" id="Shape"></path>
            <path d="M31.2276331,6.7852509 C30.1980119,5.7380635 28.5289141,5.73828697 27.4996224,6.78569784 C26.4702209,5.73851044 24.8013428,5.73851044 23.7720511,6.78569784 C22.7426496,7.83288524 22.7426496,9.53059813 23.7720511,10.5776738 L26.8783788,13.7381193 C27.221293,14.0871818 27.7775125,14.0872935 28.1206463,13.7384545 C28.1207562,13.7383428 28.120866,13.7382311 28.1209758,13.7381193 L31.2281823,10.5776738 C32.2574739,9.53037466 32.2572542,7.83232656 31.2276331,6.7852509 Z M29.9855853,9.31371906 L27.4996224,11.8421872 L25.0145383,9.31327211 C24.6743701,8.96141625 24.6789833,8.39558644 25.024863,8.04954084 C25.3667887,7.70740599 25.9152097,7.70751773 26.2570254,8.04976432 L26.878269,8.68174169 C27.2211832,9.03080415 27.7774027,9.03091589 28.1205365,8.68207689 C28.1206463,8.68196516 28.1207562,8.68185342 28.120866,8.68174169 L28.7421096,8.04976432 C29.0860123,7.70181921 29.6416826,7.70181921 29.9855853,8.04976432 C30.3279502,8.39905025 30.3279502,8.96432138 29.9855853,9.31371906 Z" id="Shape"></path>
            <path d="M55.2406653,0.871018538 L55.2397645,0.870516967 C54.2108777,-0.276575351 52.545651,-0.291873259 51.4999859,0.836284763 C50.453983,-0.292124044 48.7883059,-0.276700744 47.7593065,0.871018538 C46.7465226,2.06325222 46.746973,3.92897004 47.7602074,5.12070216 L50.851597,8.69288908 C51.1963985,9.09163783 51.7660754,9.10367553 52.1241644,8.71972311 C52.1323847,8.71094563 52.1403798,8.70191735 52.1482622,8.69288908 L55.2396519,5.12070216 C56.2531115,3.92897004 56.2534493,2.06325222 55.2406653,0.871018538 Z M53.9429866,3.72859252 L51.4999859,6.55143274 L49.0569853,3.72859252 C48.7076795,3.31730451 48.7076795,2.67391462 49.0569853,2.2626266 C49.3601223,1.90099408 49.8692168,1.88143282 50.1939743,2.21898994 C50.2074871,2.23303392 50.2205495,2.24757948 50.2331614,2.2626266 L50.851597,2.97723953 C51.2118256,3.37009483 51.7880337,3.37009483 52.1483749,2.97723953 L52.7668104,2.2626266 C53.0843611,1.90111948 53.6050541,1.89472445 53.929699,2.24833183 C53.9338655,2.25284597 53.9380319,2.2574855 53.9420857,2.26212503 C54.2920671,2.67316226 54.2925176,3.31705372 53.9429866,3.72859252 Z" id="Shape"></path>
            <path d="M8.24070396,0.87114393 L8.2398031,0.87064236 C7.21091157,-0.276449958 5.54567703,-0.291747866 4.50000703,0.836284763 C3.45399921,-0.292124044 1.78831424,-0.276700744 0.7593101,0.871018538 C-0.253478611,2.06325222 -0.253028183,3.92897004 0.760210957,5.12070216 L3.85161506,8.69288908 C4.19641815,9.09163783 4.76609773,9.10367553 5.12418847,8.71972311 C5.13240879,8.71094563 5.1404039,8.70191735 5.1482864,8.69288908 L8.2396905,5.12070216 C9.25304224,3.92909543 9.25349267,2.06337762 8.24070396,0.87114393 Z M6.94301916,3.72859252 L4.50000703,6.55143274 L2.0569949,3.72859252 C1.69834113,3.31517283 1.69068384,2.66777038 2.0569949,2.2626266 C2.36013335,1.90099408 2.86923028,1.88143282 3.1939893,2.21898994 C3.20750216,2.23303392 3.22056459,2.24757948 3.23317659,2.2626266 L3.85161506,2.97723953 C4.21184533,3.37009483 4.78805612,3.37009483 5.148399,2.97723953 L5.76683747,2.2626266 C6.08438964,1.90111948 6.6050851,1.89472445 6.92973152,2.24833183 C6.93389798,2.25284597 6.93806444,2.2574855 6.9421183,2.26212503 C7.29210133,2.67316226 7.29255175,3.31705372 6.94301916,3.72859252 Z" id="Shape"></path>
            <g id="Group" transform="translate(4.000000, 0.000000)">
                <path d="M9.53335922,3.882928 C5.65980583,6.134464 2.41269903,9.256016 0.0706019417,12.979792 L1.66532039,13.90816 C9.12419417,2.047248 25.1727379,-1.75504 37.5107184,5.415536 C41.1271456,7.517328 44.1587184,10.43168 46.344932,13.90816 L47.9396505,12.979792 C39.947068,0.272272 22.752,-3.800496 9.53335922,3.882928 Z" id="Shape"></path>
            </g>
            <path d="M51.3344634,40 C44.8680433,52.6743119 29.1788425,57.7933282 16.2915551,51.4337722 C11.2652369,48.9533804 7.1876082,44.9432532 4.66565308,40 L3,40.8226725 C9.92824072,54.4016949 26.7375079,59.885987 40.5445918,53.0722424 C45.9295083,50.4148271 50.2980467,46.1184832 53,40.8226725 L51.3344634,40 Z" id="Shape"></path>
        </g>
    </g>
</svg>