<?xml version="1.0" encoding="UTF-8"?>
<svg width="51px" height="49px" viewBox="0 0 51 49" version="1.1" xmlns="http://www.w3.org/2000/svg" xmlns:xlink="http://www.w3.org/1999/xlink">
    <!-- Generator: Sketch 51.3 (57544) - http://www.bohemiancoding.com/sketch -->
    <title>Artboard 5 Copy 4</title>
    <desc>Created with Sketch.</desc>
    <defs></defs>
    <g id="Artboard-5-Copy-4" stroke="none" stroke-width="1" fill="none" fill-rule="evenodd">
        <g id="tools-copy" fill="#E53768" fill-rule="nonzero">
            <path d="M50.8911585,37.6103099 C50.4629594,36.2145762 49.6930255,34.9461874 48.6501162,33.9188744 C46.9891012,32.2595356 44.7287771,31.329448 42.3732573,31.3358333 C41.1694246,31.3364357 39.9780826,31.5790777 38.8710223,32.0490611 L30.1396884,23.3746695 L41.7329595,11.943749 L44.4784789,11.8666433 C44.8106334,11.8566437 45.114411,11.6783367 45.2837019,11.3943709 L49.2128021,4.83074789 C49.4411508,4.45196613 49.3811229,3.96740497 49.0672799,3.65488592 L45.6717612,0.28151141 C45.3571906,-0.0302847764 44.8694486,-0.0899212187 44.4881804,0.136938217 L37.8814711,4.04041444 C37.5956412,4.20860125 37.4161638,4.51039779 37.4060985,4.84038611 L37.3284866,7.55836214 L25.76432,19.0278355 L17.8285076,11.1437773 C18.6617437,6.34406779 15.4207211,1.78206068 10.5895043,0.95425867 C8.35100854,0.570657797 6.04957446,1.05425513 4.15911941,2.30553612 C3.7152766,2.60371833 3.59873755,3.20285374 3.89887715,3.64380198 C3.98328004,3.76777349 4.0955747,3.87054093 4.22702978,3.94403231 L8.63150264,6.38250017 C9.60165085,6.9318783 9.79568049,8.57037449 9.00986044,9.95827715 C8.22404039,11.3461798 6.72031067,12.0594076 5.74046098,11.5196676 L1.65613703,9.3221551 C1.18670657,9.06553768 0.596735189,9.23565214 0.338554497,9.70202116 C0.249543399,9.86261789 0.208554637,10.0451415 0.220438953,10.2281471 C0.527369592,15.0891798 4.74278482,18.782543 9.6357273,18.477614 C10.6466217,18.4146042 11.6392046,18.1801547 12.5704256,17.784506 L19.7883283,24.9553364 L16.6644511,28.058841 L15.9562429,27.3648896 C15.1722419,26.6194943 13.9365156,26.6194943 13.1525146,27.3648896 L12.1823663,28.3287109 C11.4432347,29.0436254 11.396425,30.2080419 12.07565,30.9792195 L0.598796753,42.3619489 C-0.175381516,43.0979469 -0.202424397,44.3182651 0.538405028,45.0873945 C0.558050529,45.1078757 0.578181104,45.127875 0.598796753,45.1473924 L3.87789769,48.4051084 C4.61872712,49.1742377 5.84705602,49.2011043 6.62123429,48.4651062 C6.64184994,48.4455889 6.66198051,48.4255896 6.68162601,48.4051084 L18.1681808,37.0031025 C18.9444206,37.6778979 20.1164809,37.6313935 20.8360884,36.8970822 L21.8062366,35.9332609 C22.5804148,35.1972629 22.6074577,33.9769446 21.8666283,33.2078152 C21.8469828,33.187334 21.8268522,33.1673347 21.8062366,33.1478174 L21.0980284,32.4442278 L24.2025026,29.2925322 L33.6129402,38.6415987 C32.799956,43.4448021 36.0601391,47.9931952 40.8948727,48.8008775 C43.7585077,49.2792943 46.6765922,48.3359542 48.7084463,46.2750633 C49.0647333,45.877487 49.0293229,45.268352 48.6291367,44.9142681 C48.5258159,44.8228256 48.4039411,44.7543943 48.2718797,44.7136728 L42.8099452,43.2583027 C42.274666,43.0873449 41.8509537,42.6771184 41.6651704,42.1499082 C41.381402,41.4230665 41.3473256,40.6234562 41.5681555,39.87529 C41.9756178,38.3620905 43.2659149,37.2826107 44.3524809,37.5717571 L49.7562064,39.017489 C49.8430347,39.0300187 49.9313182,39.0300187 50.0181464,39.017489 C50.5539108,39.0239948 50.9935092,38.5977448 50.9999364,38.0654745 C51.0017554,37.9071669 50.964526,37.7507869 50.8911585,37.6103099 Z M38.9486341,8.62820377 C39.1232608,8.45351116 39.2239137,8.21894116 39.2299771,7.97280529 L39.3075889,5.39940245 L44.8083293,2.15132471 L47.136685,4.4644958 L43.9351959,9.9197243 L41.2963928,10.0161064 C41.0486412,10.0221303 40.8125314,10.1221268 40.636692,10.2956146 L28.8008839,22.0445961 L27.1322289,20.3868235 L38.9486341,8.62820377 Z M5.30389429,47.0364821 L1.97628594,43.7498515 L13.5113481,32.318931 L15.180003,33.9767037 L16.7710461,35.6151999 L5.30389429,47.0364821 Z M19.4971626,35.4706267 L18.2165669,34.1887443 L17.7217913,33.6971955 L13.6471689,29.6202314 L14.6173171,28.6564102 L20.4382063,34.5164436 L19.4971626,35.4706267 Z M19.6814907,31.0756016 L18.0128358,29.417829 L21.136713,26.3143244 L22.8053679,27.972097 L19.6814907,31.0756016 Z M44.8277322,35.711582 C44.5398408,35.6347172 44.2429754,35.595803 43.9448974,35.5959234 C41.829853,35.765556 40.0840713,37.3071881 39.6665438,39.3741029 C39.3354807,40.5347847 39.4002381,41.7717288 39.8508719,42.8920506 C40.2667017,43.9702052 41.1685757,44.7912604 42.2859439,45.1088396 L45.8948953,46.0726608 C42.60391,48.0209051 38.3462933,46.9498587 36.38526,43.6804564 C35.4642256,42.1449686 35.1798509,40.3140696 35.5919213,38.5741312 C35.6657738,38.2505282 35.5668187,37.9118655 35.3299813,37.6777774 L13.4628407,15.9339691 C13.1523933,15.6442204 12.6880561,15.5895235 12.3180658,15.7990342 C11.3162665,16.3241963 10.2007174,16.5988854 9.06806933,16.5990058 C6.14925718,16.6015359 3.54210515,14.786058 2.54867338,12.0594076 L4.76061129,13.2834606 C5.27624507,13.5703179 5.85772765,13.7197102 6.44866917,13.7171802 C8.24489858,13.6144127 9.85146401,12.5724014 10.6688139,10.9799277 C11.9882154,8.63784198 11.4740369,5.85239846 9.53374047,4.77291862 L6.71060919,3.18261349 C10.3183478,1.90229739 14.287588,3.77006257 15.5763086,7.35415251 C16.0235469,8.59820483 16.1015226,9.94369935 15.8008979,11.2305213 C15.7270454,11.5541242 15.8260005,11.892787 16.0628379,12.126875 L37.9784859,33.8899598 C38.2780192,34.187901 38.7376269,34.25826 39.1135593,34.0634476 C40.1154799,33.5386469 41.2309078,33.2640783 42.3635558,33.2634759 C44.8202136,33.2615483 47.0941197,34.5524664 48.3396688,36.6561268 L44.8277322,35.711582 Z" id="Shape"></path>
        </g>
    </g>
</svg>