<?xml version="1.0" encoding="UTF-8"?>
<svg width="55px" height="41px" viewBox="0 0 55 41" version="1.1" xmlns="http://www.w3.org/2000/svg" xmlns:xlink="http://www.w3.org/1999/xlink">
    <!-- Generator: Sketch 51.3 (57544) - http://www.bohemiancoding.com/sketch -->
    <title>Artboard 5 Copy 6</title>
    <desc>Created with Sketch.</desc>
    <defs></defs>
    <g id="Artboard-5-Copy-6" stroke="none" stroke-width="1" fill="none" fill-rule="evenodd">
        <g id="team-(1)-copy" fill="#E53768" fill-rule="nonzero">
            <path d="M48.539992,18.1482125 C46.6077948,17.0131619 42.9850635,17 42.831792,17 C42.372421,17 42,17.4376005 42,17.9773685 C42,18.5171365 42.372421,18.954737 42.831792,18.954737 C43.7666152,18.9548673 46.4808078,19.1240172 47.7960373,19.8966596 C47.9154826,19.9668998 48.0423586,20 48.1673492,20 C48.4724505,20 48.7662394,19.80192 48.9119694,19.4595804 C49.1174775,18.9767603 48.9508973,18.3896877 48.539992,18.1482125 Z" id="Shape"></path>
            <path d="M52.5413281,29.3694312 L49.2139355,28.4276087 C49.0703125,28.386956 48.9699805,28.2552073 48.9699805,28.1071762 L48.9699805,27.0068934 C49.2406836,26.821083 49.4989258,26.6131371 49.7403027,26.3810337 C50.910127,25.2563806 51.5543359,23.7478683 51.5543359,22.1332546 L51.5543359,20.6149516 L51.8760645,19.9775985 C52.2291602,19.2778829 52.415752,18.4945207 52.415752,17.7123291 L52.415752,13.599172 C52.415752,13.1583778 52.0550293,12.8010174 51.6100879,12.8010174 L43.8571289,12.8010174 C41.0379492,12.8010174 38.7442773,15.0733105 38.7442773,17.8662133 L38.7442773,17.9137833 C38.7442773,18.5642262 38.899502,19.2156268 39.1930859,19.7973219 L39.6056934,20.6148451 L39.6056934,21.9184978 C39.6056934,23.9845477 40.6333984,25.8382885 42.1900488,26.9537895 L42.1902637,28.1069634 C42.1902637,28.2847922 42.1902637,28.3584353 41.525,28.5467998 L39.9014258,29.006324 L35.204834,27.314449 C35.2216992,27.0949033 35.1469336,26.8716328 34.9852637,26.7033818 L33.4844727,25.1413399 L33.4844727,22.5191358 C33.6431348,22.3896219 33.799541,22.2565961 33.9511133,22.115908 C35.8444238,20.3578393 36.9302441,17.8756848 36.9302441,15.305946 L36.9302441,13.211801 C37.5019434,11.9793438 37.7916602,10.675159 37.7916602,9.33202436 L37.7916602,0.798154666 C37.7916602,0.357360449 37.4309375,0 36.9859961,0 L24.9258496,0 C20.6816113,0 17.22875,3.42078448 17.22875,7.62535684 L17.22875,9.3322372 C17.22875,10.6753719 17.5184668,11.9795566 18.090166,13.2120138 L18.090166,15.0138214 C18.090166,17.9974299 19.4292871,20.685402 21.5359375,22.4575182 L21.5359375,25.1414463 L20.0351465,26.7034882 C19.8734766,26.8717392 19.7987109,27.0950097 19.8155762,27.3145554 L14.8585937,29.100187 C14.499375,29.2295945 14.1656152,29.4048693 13.8625781,29.6171784 L13.0841992,29.2316165 C15.4012891,28.2324333 16.1353027,26.827149 16.1705371,26.757337 C16.2839746,26.5326831 16.2839746,26.2681214 16.1705371,26.0434675 C15.589707,24.8926349 15.5193457,22.7832717 15.4628418,21.0884169 C15.444043,20.5241748 15.4262109,19.9911139 15.3921582,19.5164779 C15.1174805,15.6881024 12.179707,12.8010174 8.55851563,12.8010174 C4.93732422,12.8010174 1.99944336,15.687996 1.72487305,19.5164779 C1.69082031,19.9912203 1.67298828,20.5242812 1.65418945,21.0886298 C1.59768555,22.7833782 1.5272168,24.8925285 0.946494141,26.0433611 C0.833056641,26.268015 0.833056641,26.5325767 0.946494141,26.7572306 C0.981728516,26.8270425 1.71423828,28.2294535 4.03594727,29.2298074 L1.87386719,30.3007181 C0.718007812,30.8736867 0,32.0246257 0,33.3047594 L0,39.2014197 C0,39.6422139 0.360722656,39.9995743 0.805664062,39.9995743 C1.25060547,39.9995743 1.61132812,39.6422139 1.61132812,39.2014197 L1.61132812,33.3047594 C1.61132812,32.6330324 1.98805664,32.0290954 2.59445312,31.72867 L5.28676758,30.3951132 L6.22327148,31.276808 C6.87811523,31.8933027 7.7181543,32.2013904 8.55851562,32.2013904 C9.39866211,32.2013904 10.2391309,31.8930898 10.8937598,31.276808 L11.8301562,30.3952196 L12.7080078,30.8300542 C12.2946484,31.485286 12.0600391,32.2536429 12.0600391,33.0585021 L12.0600391,39.2016325 C12.0600391,39.6424267 12.4207617,39.9997872 12.8657031,39.9997872 C13.3106445,39.9997872 13.6713672,39.6424267 13.6713672,39.2016325 L13.6713672,33.0585021 C13.6713672,31.9627954 14.3697168,30.9749991 15.4092383,30.600505 L20.6355273,28.7178177 L22.8111426,31.9509827 C23.0892578,32.3643204 23.5349512,32.6294141 24.0339258,32.6783676 C24.0895703,32.6837951 24.1448926,32.6864556 24.2001074,32.6864556 C24.6403223,32.6864556 25.0619531,32.5147991 25.3771289,32.2026674 L26.7044336,30.8877342 L26.7044336,39.2017389 C26.7044336,39.6425331 27.0651562,39.9998936 27.5100977,39.9998936 C27.9550391,39.9998936 28.3157617,39.6425331 28.3157617,39.2017389 L28.3157617,30.8877342 L29.6430664,32.2026674 C29.9581348,32.5149055 30.3797656,32.686562 30.8200879,32.686562 C30.8751953,32.686562 30.930625,32.6839015 30.9861621,32.678474 C31.4852441,32.6295205 31.9309375,32.3644268 32.2090527,31.9510891 L34.3847754,28.7180306 L39.610957,30.6007178 C40.6503711,30.975212 41.3488281,31.9630082 41.3488281,33.0587149 L41.3488281,39.2018453 C41.3488281,39.6426396 41.7095508,40 42.1544922,40 C42.5994336,40 42.9601562,39.6426396 42.9601562,39.2018453 L42.9601562,33.0587149 C42.9601562,31.9489607 42.5151074,30.908167 41.7685254,30.1384266 L41.9675781,30.0821301 C42.1683496,30.0253015 42.4422754,29.947508 42.7172754,29.8139501 L44.7742969,31.8517986 L44.7742969,39.2018453 C44.7742969,39.6426396 45.1350195,40 45.5799609,40 C46.0249023,40 46.385625,39.6426396 46.385625,39.2018453 L46.385625,31.8517986 L48.4283594,29.8281041 C48.5369629,29.8828043 48.6510449,29.9289908 48.7711426,29.962939 L52.0986426,30.9047615 C52.8581152,31.1197312 53.3886719,31.816467 53.3886719,32.5990843 L53.3886719,39.2018453 C53.3886719,39.6426396 53.7493945,40 54.1943359,40 C54.6392773,40 55,39.6426396 55,39.2018453 L55,32.5990843 C55,31.10728 53.9889453,29.779257 52.5413281,29.3694312 Z M5.16860352,27.9596772 C3.66158203,27.4224659 2.9056543,26.7062551 2.58295898,26.3151594 C2.80295898,25.7453833 2.94561523,25.0928121 3.0421875,24.4039514 C3.48648438,25.4593247 4.2305957,26.3602817 5.16860352,27.0030623 L5.16860352,27.9596772 Z M9.78398438,30.119803 C9.09680664,30.7666276 8.02033203,30.7665211 7.33336914,30.1196966 L6.58410156,29.4143407 C6.71053711,29.1796832 6.78003906,28.9136317 6.78003906,28.6349161 L6.78003906,27.7841896 C7.34207031,27.9581873 7.93955078,28.0520503 8.55873047,28.0520503 C9.1771582,28.0520503 9.77431641,27.9577617 10.3373145,27.7847217 L10.337207,28.6348097 C10.337207,28.9136317 10.4066016,29.1797897 10.5331445,29.4145536 L9.78398438,30.119803 Z M8.55894531,26.455741 C6.153125,26.455741 4.19600586,24.5167573 4.19600586,22.1334674 C4.19600586,21.6926732 3.8352832,21.3353128 3.3903418,21.3353128 C3.34522461,21.3353128 3.30118164,21.3398888 3.25810547,21.347019 C3.26046875,21.2783777 3.26272461,21.20963 3.26508789,21.1416272 C3.28302734,20.5928161 3.30032227,20.0744412 3.33222656,19.6298159 C3.43513672,18.1956916 4.01360352,16.8741603 4.96106445,15.9084995 C5.91701172,14.9341123 7.1946875,14.3975396 8.55873047,14.3975396 C9.92277344,14.3975396 11.2003418,14.9341123 12.1563965,15.9084995 C13.1038574,16.8741603 13.6823242,18.1956916 13.7852344,19.6298159 C13.8170313,20.0743348 13.8344336,20.5926032 13.8526953,21.141308 C13.8543066,21.1884523 13.855918,21.2362352 13.8575293,21.2836988 C12.9809668,19.9457787 11.6272363,18.9597916 9.87808594,18.4029989 C8.26213867,17.8886681 6.87231445,17.9204878 6.81366211,17.9219777 C6.60268555,17.9278309 6.40245117,18.0153086 6.25603516,18.1657874 L4.80240234,19.6592944 C4.49356445,19.9766407 4.50280273,20.4819258 4.82313477,20.7878851 C5.1434668,21.0938444 5.65350586,21.0845858 5.96234375,20.7673459 L7.17191406,19.5246723 C8.21358398,19.5751157 11.5648242,19.9612097 12.8681738,22.8044494 C12.5402148,24.8996587 10.7224219,26.455741 8.55894531,26.455741 Z M11.9484277,27.9623377 L11.9485352,27.0104053 C12.885791,26.3711366 13.6309766,25.4718823 14.0755957,24.4085275 C14.172168,25.0957919 14.3147168,25.7468732 14.5342871,26.3153722 C14.213418,26.7027433 13.4539453,27.4253393 11.9484277,27.9623377 Z M19.7014941,15.013715 L19.7014941,13.03344 C19.7014941,12.9132911 19.6741016,12.7946321 19.6213574,12.6864024 C19.1029395,11.6228347 18.8400781,10.4943504 18.8400781,9.3322372 L18.8400781,7.62546326 C18.8400781,4.30098945 21.5702051,1.59641575 24.9258496,1.59641575 L36.180332,1.59641575 L36.180332,9.33234362 C36.180332,10.4944568 35.9174707,11.6229411 35.3990527,12.6865088 C35.3463086,12.7947386 35.318916,12.9133976 35.318916,13.0335464 L35.318916,15.3061588 C35.318916,17.4676681 34.4418164,19.4725262 32.8491797,20.9514536 C32.6503418,21.1359869 32.4439844,21.3090269 32.2306445,21.4702541 C32.225918,21.4734467 32.2214062,21.4769586 32.2167871,21.4802576 C30.7248047,22.6024631 28.8973437,23.1478688 26.9888867,23.0253787 C22.9024512,22.7632647 19.7014941,19.2441475 19.7014941,15.013715 Z M24.2378125,31.0737575 C24.2322266,31.0792913 24.2192285,31.0923811 24.1929102,31.0896141 C24.1666992,31.0870601 24.1563867,31.0718419 24.1519824,31.0652438 L21.6463672,27.3417991 L22.4526758,26.5024596 L26.2537988,29.0764552 L24.2378125,31.0737575 Z M27.5102051,27.9936254 L23.1472656,25.0391761 L23.1472656,23.5492874 C24.2761621,24.1538629 25.5401953,24.5319754 26.8845801,24.6181761 C27.0969531,24.6317979 27.3080371,24.6385024 27.5184766,24.6385024 C29.0590137,24.6385024 30.5416504,24.2736926 31.8731445,23.5812136 L31.8731445,25.0391761 L27.5102051,27.9936254 Z M30.8684277,31.0654567 C30.8640234,31.0720547 30.8537109,31.0872729 30.8275,31.089827 C30.8011816,31.093126 30.788291,31.0793978 30.7825977,31.0739703 L28.7666113,29.0767745 L32.5677344,26.5026725 L33.3741504,27.3420119 L30.8684277,31.0654567 Z M45.5799609,30.392027 L43.7516406,28.5808544 C43.7835449,28.437293 43.8015918,28.2801097 43.8014844,28.1067505 L43.801377,27.7699293 C44.3087305,27.9348812 44.8434766,28.0327882 45.3968066,28.049177 C45.4588965,28.0510925 45.5204492,28.0519439 45.5823242,28.0519439 C46.1937695,28.0519439 46.7906055,27.9604222 47.3586523,27.7857859 L47.3586523,28.1071762 C47.3586523,28.2663815 47.3788477,28.4223941 47.416875,28.5723407 L45.5799609,30.392027 Z M48.6181738,25.2355221 C47.7642773,26.0564508 46.6362402,26.4900084 45.4452539,26.4536126 C43.1137695,26.3843328 41.2170215,24.3498897 41.2170215,21.9187106 L41.2170215,20.4265871 C41.2170215,20.302607 41.1879102,20.1804362 41.1319434,20.0696523 L40.6342578,19.0835588 C40.4519629,18.7222608 40.3556055,18.3178624 40.3556055,17.9138898 L40.3556055,17.8663197 C40.3556055,15.9535155 41.9264355,14.3974331 43.8571289,14.3974331 L50.8044238,14.3974331 L50.8044238,17.7124355 C50.8044238,18.2481569 50.6765918,18.7846233 50.4347852,19.2638353 L50.0280859,20.0696523 C49.9721191,20.1805426 49.9430078,20.302607 49.9430078,20.4265871 L49.9430078,22.133361 C49.9430078,23.3125015 49.4725,24.4141678 48.6181738,25.2355221 Z" id="Shape"></path>
            <path d="M51,33 C50.4477333,33 50,33.3724313 50,33.8318149 L50,39.1681851 C50,39.6275687 50.4477333,40 51,40 C51.5522667,40 52,39.6275687 52,39.1681851 L52,33.8318149 C52,33.3725422 51.5522667,33 51,33 Z" id="Shape"></path>
            <path d="M5,35 C4.44773333,35 4,35.3787147 4,35.8458488 L4,40.1541512 C4,40.6212853 4.44773333,41 5,41 C5.55226667,41 6,40.6212853 6,40.1541512 L6,35.8458488 C6,35.3788275 5.55226667,35 5,35 Z" id="Shape"></path>
            <path d="M34.7583499,9.58414165 C31.6379924,6.29299585 25.1093984,6.92219572 22.4470952,7.34545244 C21.608539,7.47876438 21,8.22723725 21,9.12514945 L21,11.1298176 C21,11.6103903 21.3693915,12 21.8250258,12 C22.28066,12 22.6500516,11.6103903 22.6500516,11.1298176 L22.6500516,9.12503342 C22.6500516,9.09544722 22.6685321,9.07015392 22.6931729,9.0662091 C23.7565761,8.89716166 25.8667721,8.636339 28.0530904,8.79007122 C30.6258508,8.97072108 32.489309,9.65189985 33.5916535,10.8146956 C33.9138536,11.1545308 34.4362599,11.1545308 34.7583499,10.8146956 C35.08055,10.4748603 35.08055,9.92386085 34.7583499,9.58414165 Z" id="Shape"></path>
            <path d="M18,35 C17.4477333,35 17,35.3566497 17,35.7965673 L17,39.2034327 C17,39.6433503 17.4477333,40 18,40 C18.5522667,40 19,39.6433503 19,39.2034327 L19,35.7965673 C19,35.356756 18.5522667,35 18,35 Z" id="Shape"></path>
            <path d="M37,35 C36.4477333,35 36,35.3566497 36,35.7965673 L36,39.2034327 C36,39.6433503 36.4477333,40 37,40 C37.5522667,40 38,39.6433503 38,39.2034327 L38,35.7965673 C38,35.356756 37.5522667,35 37,35 Z" id="Shape"></path>
        </g>
    </g>
</svg>